<svg width="34" height="27" viewBox="0 0 34 27" fill="none" xmlns="http://www.w3.org/2000/svg">
<path d="M7.91016 25.5352C8.53125 25.5352 8.95312 25.3242 9.70312 24.668L14.625 20.2617L13.2656 18.9492L8.39062 23.4492V20.0977C8.39062 19.4297 7.99219 19.125 7.47656 19.125H5.19141C3.11719 19.125 1.88672 17.9883 1.88672 15.8086V5.13281C1.88672 2.95312 3.11719 1.80469 5.19141 1.80469H21.7266C23.8008 1.80469 25.0312 2.95312 25.0312 5.13281V6.77344H26.918V5.0625C26.918 1.88672 25.0312 0.0351562 21.8438 0.0351562H5.07422C2.01562 0.0351562 0 1.88672 0 5.0625V15.8555C0 19.043 2.01562 20.8828 5.07422 20.8828H6.62109V24.0938C6.62109 24.9961 7.07812 25.5352 7.91016 25.5352ZM27 26.8477C27.8086 26.8477 28.2656 26.2734 28.2656 25.3828V22.5703H28.7578C31.6992 22.5703 33.6562 20.7891 33.6562 17.7305V10.8047C33.6562 7.73438 31.6992 5.95312 28.7578 5.95312H17.3789C14.3086 5.95312 12.4922 7.73438 12.4922 10.8047V17.7305C12.4922 20.8008 14.3086 22.5703 17.3789 22.5703H21.4219L25.3359 25.9219C26.0508 26.5312 26.4375 26.8477 27 26.8477ZM26.5078 24.7266L22.7461 21.3516C22.2773 20.9414 21.9961 20.8008 21.3516 20.8008H17.4961C15.5391 20.8008 14.3672 19.7461 14.3672 17.6719L14.3789 10.8633C14.3789 8.80078 15.5391 7.72266 17.4961 7.72266H28.6523C30.5977 7.72266 31.7695 8.80078 31.7695 10.8633V17.6719C31.7695 19.7461 30.5977 20.8008 28.6523 20.8008H27.4102C26.9062 20.8008 26.5078 21.1055 26.5078 21.7617V24.7266ZM23.0859 15.668C23.6133 15.668 23.918 15.3633 23.9414 14.7773L24.0938 10.6875C24.1172 10.0664 23.6602 9.64453 23.0742 9.64453C22.4766 9.64453 22.0312 10.0547 22.0547 10.6758L22.207 14.7773C22.2305 15.3516 22.5234 15.668 23.0859 15.668ZM23.0742 19.2188C23.7188 19.2188 24.2812 18.7148 24.2812 18.0703C24.2812 17.4141 23.7305 16.9102 23.0742 16.9102C22.418 16.9102 21.8672 17.4258 21.8672 18.0703C21.8672 18.7031 22.4297 19.2188 23.0742 19.2188Z" fill="white"/>
</svg>
